<svg xmlns="http://www.w3.org/2000/svg" viewBox="0 0 900 1000">
  <!-- Background -->
  <rect width="900" height="1000" fill="#f8f9fa" rx="10" ry="10"/>
  <text x="450" y="40" font-family="Arial" font-size="24" text-anchor="middle" font-weight="bold" fill="#333">Input Format for RNN Model</text>
  
  <!-- Raw Input Section - Simplified -->
  <rect x="50" y="70" width="800" height="60" rx="10" ry="10" fill="#e3f2fd" stroke="#90caf9" stroke-width="2"/>
  <text x="450" y="105" font-family="Arial" font-size="18" text-anchor="middle" font-weight="bold" fill="#1565c0">Step 1: Raw Input Example</text>
  <text x="450" y="125" font-family="Arial" font-size="12" text-anchor="middle" font-style="italic" fill="#1565c0">(Same as Embeddings Model)</text>
  
  <!-- Tokenization Section - Simplified -->
  <rect x="50" y="150" width="800" height="60" rx="10" ry="10" fill="#e8f5e9" stroke="#a5d6a7" stroke-width="2"/>
  <text x="450" y="185" font-family="Arial" font-size="18" text-anchor="middle" font-weight="bold" fill="#2e7d32">Step 2: Tokenization with NLTK</text>
  <text x="450" y="205" font-family="Arial" font-size="12" text-anchor="middle" font-style="italic" fill="#2e7d32">(Same as Embeddings Model)</text>
  
  <!-- Word Embeddings Section - Simplified -->
  <rect x="50" y="230" width="800" height="60" rx="10" ry="10" fill="#fff3e0" stroke="#ffcc80" stroke-width="2"/>
  <text x="450" y="265" font-family="Arial" font-size="18" text-anchor="middle" font-weight="bold" fill="#e65100">Step 3: Convert to FastText Word Embeddings</text>
  <text x="450" y="285" font-family="Arial" font-size="12" text-anchor="middle" font-style="italic" fill="#e65100">(Same as Embeddings Model)</text>
  
  <!-- Special Tokens Section -->
  <rect x="50" y="310" width="800" height="150" rx="10" ry="10" fill="#f3e5f5" stroke="#ce93d8" stroke-width="2"/>
  <text x="450" y="330" font-family="Arial" font-size="18" text-anchor="middle" font-weight="bold" fill="#4a148c">Step 4: Add Special Separator Tokens</text>
  
  <!-- Special Tokens Content -->
  <rect x="70" y="350" width="740" height="90" rx="5" ry="5" fill="#e1bee7" stroke="#ba68c8" stroke-width="1"/>
  <text x="90" y="370" font-family="Arial" font-size="14" fill="#4a148c" font-weight="bold">Special Tokens for Separation:</text>
  
  <rect x="90" y="380" width="100" height="30" rx="5" ry="5" fill="#f8bbd0" stroke="#f48fb1" stroke-width="1"/>
  <text x="140" y="400" font-family="Arial" font-size="12" text-anchor="middle" fill="#880e4f">[EOQ]</text>
  
  <rect x="200" y="380" width="100" height="30" rx="5" ry="5" fill="#f8bbd0" stroke="#f48fb1" stroke-width="1"/>
  <text x="250" y="400" font-family="Arial" font-size="12" text-anchor="middle" fill="#880e4f">[EOC1]</text>
  
  <rect x="310" y="380" width="100" height="30" rx="5" ry="5" fill="#f8bbd0" stroke="#f48fb1" stroke-width="1"/>
  <text x="360" y="400" font-family="Arial" font-size="12" text-anchor="middle" fill="#880e4f">[EOC2]</text>
  
  <rect x="420" y="380" width="100" height="30" rx="5" ry="5" fill="#f8bbd0" stroke="#f48fb1" stroke-width="1"/>
  <text x="470" y="400" font-family="Arial" font-size="12" text-anchor="middle" fill="#880e4f">[EOC3]</text>
  
  <rect x="530" y="380" width="100" height="30" rx="5" ry="5" fill="#f8bbd0" stroke="#f48fb1" stroke-width="1"/>
  <text x="580" y="400" font-family="Arial" font-size="12" text-anchor="middle" fill="#880e4f">[EOC4]</text>
  
  <text x="90" y="425" font-family="Arial" font-size="12" fill="#4a148c">Each token receives a random 300-dimensional vector to separate content parts</text>
  
  <!-- Concatenation Section -->
  <rect x="50" y="480" width="800" height="200" rx="10" ry="10" fill="#e0f7fa" stroke="#80deea" stroke-width="2"/>
  <text x="450" y="500" font-family="Arial" font-size="18" text-anchor="middle" font-weight="bold" fill="#006064">Step 5: Concatenate All Sequences</text>
  
  <!-- Concatenation Content with boxes -->
  <rect x="70" y="520" width="740" height="140" rx="5" ry="5" fill="#b2ebf2" stroke="#4dd0e1" stroke-width="1"/>
  <text x="90" y="540" font-family="Arial" font-size="14" fill="#006064" font-weight="bold">Full Sequence Format:</text>
  
  <!-- Sequence visualization with boxes -->
  <!-- First row -->
  <rect x="90" y="550" width="100" height="30" rx="5" ry="5" fill="#c8e6c9" stroke="#81c784" stroke-width="1"/>
  <text x="140" y="570" font-family="Arial" font-size="10" text-anchor="middle" fill="#1b5e20">Question Tokens</text>
  
  <text x="200" y="570" font-family="Arial" font-size="16" text-anchor="middle" fill="#006064">→</text>
  
  <rect x="215" y="550" width="60" height="30" rx="5" ry="5" fill="#f8bbd0" stroke="#f48fb1" stroke-width="1"/>
  <text x="245" y="570" font-family="Arial" font-size="10" text-anchor="middle" fill="#880e4f">[EOQ]</text>
  
  <text x="285" y="570" font-family="Arial" font-size="16" text-anchor="middle" fill="#006064">→</text>
  
  <rect x="300" y="550" width="100" height="30" rx="5" ry="5" fill="#c8e6c9" stroke="#81c784" stroke-width="1"/>
  <text x="350" y="570" font-family="Arial" font-size="10" text-anchor="middle" fill="#1b5e20">Choice A Tokens</text>
  
  <text x="410" y="570" font-family="Arial" font-size="16" text-anchor="middle" fill="#006064">→</text>
  
  <rect x="425" y="550" width="60" height="30" rx="5" ry="5" fill="#f8bbd0" stroke="#f48fb1" stroke-width="1"/>
  <text x="455" y="570" font-family="Arial" font-size="10" text-anchor="middle" fill="#880e4f">[EOC1]</text>
  
  <text x="495" y="570" font-family="Arial" font-size="16" text-anchor="middle" fill="#006064">→</text>
  
  <rect x="510" y="550" width="100" height="30" rx="5" ry="5" fill="#c8e6c9" stroke="#81c784" stroke-width="1"/>
  <text x="560" y="570" font-family="Arial" font-size="10" text-anchor="middle" fill="#1b5e20">Choice B Tokens</text>
  
  <text x="620" y="570" font-family="Arial" font-size="16" text-anchor="middle" fill="#006064">→</text>
  
  <rect x="635" y="550" width="60" height="30" rx="5" ry="5" fill="#f8bbd0" stroke="#f48fb1" stroke-width="1"/>
  <text x="665" y="570" font-family="Arial" font-size="10" text-anchor="middle" fill="#880e4f">[EOC2]</text>
  
  <!-- Add connecting arrow from [EOC2] to Choice C Tokens -->
  <path d="M665,580 L665,595 L140,595 L140,610" fill="none" stroke="#006064" stroke-width="1"/>
  
  <!-- Second row -->
  <rect x="90" y="610" width="100" height="30" rx="5" ry="5" fill="#c8e6c9" stroke="#81c784" stroke-width="1"/>
  <text x="140" y="630" font-family="Arial" font-size="10" text-anchor="middle" fill="#1b5e20">Choice C Tokens</text>
  
  <text x="200" y="630" font-family="Arial" font-size="16" text-anchor="middle" fill="#006064">→</text>
  
  <rect x="215" y="610" width="60" height="30" rx="5" ry="5" fill="#f8bbd0" stroke="#f48fb1" stroke-width="1"/>
  <text x="245" y="630" font-family="Arial" font-size="10" text-anchor="middle" fill="#880e4f">[EOC3]</text>
  
  <text x="285" y="630" font-family="Arial" font-size="16" text-anchor="middle" fill="#006064">→</text>
  
  <rect x="300" y="610" width="100" height="30" rx="5" ry="5" fill="#c8e6c9" stroke="#81c784" stroke-width="1"/>
  <text x="350" y="630" font-family="Arial" font-size="10" text-anchor="middle" fill="#1b5e20">Choice D Tokens</text>
  
  <text x="410" y="630" font-family="Arial" font-size="16" text-anchor="middle" fill="#006064">→</text>
  
  <rect x="425" y="610" width="60" height="30" rx="5" ry="5" fill="#f8bbd0" stroke="#f48fb1" stroke-width="1"/>
  <text x="455" y="630" font-family="Arial" font-size="10" text-anchor="middle" fill="#880e4f">[EOC4]</text>
  
  <text x="495" y="630" font-family="Arial" font-size="16" text-anchor="middle" fill="#006064">→</text>
  
  <rect x="510" y="610" width="100" height="30" rx="5" ry="5" fill="#c8e6c9" stroke="#81c784" stroke-width="1"/>
  <text x="560" y="630" font-family="Arial" font-size="10" text-anchor="middle" fill="#1b5e20">Choice E Tokens</text>
  
  <!-- Shape information -->
  <text x="90" y="655" font-family="Arial" font-size="12" fill="#006064" font-weight="bold">Sequence Tensor Shape: (batch_size, sequence_length, 300)</text>
  
  <!-- Padding Section - NEW -->
  <rect x="50" y="700" width="800" height="180" rx="10" ry="10" fill="#e8f5e9" stroke="#a5d6a7" stroke-width="2"/>
  <text x="450" y="720" font-family="Arial" font-size="18" text-anchor="middle" font-weight="bold" fill="#2e7d32">Step 6: Padding and Batching with Custom Collate Function</text>
  
  <!-- Padding Content -->
  <rect x="70" y="740" width="340" height="120" rx="5" ry="5" fill="#c8e6c9" stroke="#81c784" stroke-width="1"/>
  <text x="90" y="760" font-family="Arial" font-size="14" fill="#1b5e20" font-weight="bold">Padding:</text>
  <text x="90" y="780" font-family="Arial" font-size="12" fill="#1b5e20">• Sequences have different lengths</text>
  <text x="90" y="800" font-family="Arial" font-size="12" fill="#1b5e20">• Each batch is padded to the length of its</text>
  <text x="97" y="817" font-family="Arial" font-size="12" fill="#1b5e20">longest sequence</text>
  <text x="90" y="837" font-family="Arial" font-size="12" fill="#1b5e20">• Padded with zeros: (0, 0, ..., 0)</text>
  
  <!-- Collate Function Content -->
  <rect x="470" y="740" width="340" height="120" rx="5" ry="5" fill="#c8e6c9" stroke="#81c784" stroke-width="1"/>
  <text x="490" y="760" font-family="Arial" font-size="14" fill="#1b5e20" font-weight="bold">Custom Collate Function:</text>
  <text x="490" y="780" font-family="Arial" font-size="12" fill="#1b5e20">• Tracks original sequence lengths</text>
  <text x="490" y="800" font-family="Arial" font-size="12" fill="#1b5e20">• Applies padding</text>
  <text x="490" y="820" font-family="Arial" font-size="12" fill="#1b5e20">• Returns: (padded_sequences, lengths, labels)</text>
  <text x="490" y="840" font-family="Arial" font-size="12" fill="#1b5e20">• Enables usage of packed sequences</text>
  
  <!-- Forward Pass Section -->
  <rect x="50" y="900" width="800" height="80" rx="10" ry="10" fill="#e8eaf6" stroke="#9fa8da" stroke-width="2"/>
  <text x="450" y="930" font-family="Arial" font-size="18" text-anchor="middle" font-weight="bold" fill="#283593">Step 7: Forward Pass Through RNN Model</text>
  <text x="450" y="960" font-family="Arial" font-size="16" text-anchor="middle" fill="#1a237e">Packed sequences processed through LSTM neural network</text>
  
  <!-- Connecting Arrows -->
  <path d="M450,130 L450,150" fill="none" stroke="#666" stroke-width="2" stroke-dasharray="5,5"/>
  <polygon points="450,150 445,140 455,140" fill="#666"/>
  
  <path d="M450,210 L450,230" fill="none" stroke="#666" stroke-width="2" stroke-dasharray="5,5"/>
  <polygon points="450,230 445,220 455,220" fill="#666"/>
  
  <path d="M450,290 L450,310" fill="none" stroke="#666" stroke-width="2" stroke-dasharray="5,5"/>
  <polygon points="450,310 445,300 455,300" fill="#666"/>
  
  <path d="M450,460 L450,480" fill="none" stroke="#666" stroke-width="2" stroke-dasharray="5,5"/>
  <polygon points="450,480 445,470 455,470" fill="#666"/>
  
  <path d="M450,680 L450,700" fill="none" stroke="#666" stroke-width="2" stroke-dasharray="5,5"/>
  <polygon points="450,700 445,690 455,690" fill="#666"/>
  
  <path d="M450,880 L450,900" fill="none" stroke="#666" stroke-width="2" stroke-dasharray="5,5"/>
  <polygon points="450,900 445,890 455,890" fill="#666"/>
</svg>